<svg width="657" height="464" viewBox="0 0 657 464" fill="none" xmlns="http://www.w3.org/2000/svg">
<g clip-path="url(#clip0_58_119)">
<path d="M142.22 248.687C192.361 289.201 257.379 292.218 294.847 316.354C332.315 340.49 342.784 385.745 324.601 422.811C306.418 459.877 259.583 488.754 247.461 546.939C234.788 605.555 257.379 693.048 225.421 722.356C193.463 751.664 106.956 721.925 25.9591 715.029C-55.0379 708.564 -131.076 724.511 -175.156 700.806C-218.685 677.101 -230.256 613.313 -258.357 561.593C-286.458 509.873 -331.089 470.652 -318.967 436.603C-306.845 402.554 -236.868 374.108 -204.359 328.853C-171.299 283.598 -175.707 221.534 -144.3 172.4C-112.893 123.697 -45.6709 87.924 5.57211 109.043C56.8151 130.162 92.0791 208.173 142.22 248.687Z" fill="#9640D9"/>
</g>
<defs>
<clipPath id="clip0_58_119">
<rect width="673" height="464" fill="white" transform="translate(-16)"/>
</clipPath>
</defs>
</svg>
