<svg width="1034" height="1004" viewBox="0 0 1034 1004" fill="none" xmlns="http://www.w3.org/2000/svg">
<g clip-path="url(#clip0_58_114)">
<path d="M633.624 182.592C707.229 219.782 789.36 206.074 842.711 226.188C896.062 246.301 921.324 300.088 908.548 351.336C895.772 402.584 844.958 451.294 845.441 527.326C845.35 604.046 897.129 707.401 865.039 752.649C832.948 797.898 716.756 783.962 613.598 797.114C510.555 810.806 419.74 851.195 358.235 833.398C297.419 815.453 265.796 738.784 216.744 681.652C167.691 624.52 101.325 587.465 107.332 541.62C113.338 495.775 193.212 441.383 221.704 376.041C250.885 310.55 228.685 234.111 254.756 164.214C280.943 94.8555 355.401 32.0397 425.17 44.6761C494.938 57.3125 560.018 145.401 633.624 182.592Z" fill="#A147D9"/>
</g>
<defs>
<clipPath id="clip0_58_114">
<rect width="896.301" height="943.165" fill="white" transform="matrix(0.967997 -0.250964 0.175479 0.984483 0.438477 75.4544)"/>
</clipPath>
</defs>
</svg>
