<svg width="655" height="634" viewBox="0 0 655 634" fill="none" xmlns="http://www.w3.org/2000/svg">
<path d="M463.22 146.687C513.361 187.201 578.379 190.218 615.847 214.354C653.315 238.49 663.784 283.745 645.601 320.811C627.418 357.877 580.583 386.754 568.461 444.939C555.788 503.555 578.379 591.048 546.421 620.356C514.463 649.664 427.956 619.925 346.959 613.029C265.962 606.564 189.924 622.511 145.844 598.806C102.315 575.101 90.7441 511.313 62.6431 459.593C34.5421 407.873 -10.0889 368.652 2.0331 334.603C14.1551 300.554 84.1321 272.108 116.641 226.853C149.701 181.598 145.293 119.534 176.7 70.4C208.107 21.697 275.329 -14.076 326.572 7.04302C377.815 28.162 413.079 106.173 463.22 146.687Z" fill="#9640D9"/>
</svg>
