<svg width="791" height="663" viewBox="0 0 791 663" fill="none" xmlns="http://www.w3.org/2000/svg">
<g clip-path="url(#clip0_58_122)">
<path d="M279.32 296.113C339.016 344.353 416.424 347.946 461.032 376.684C505.64 405.423 518.104 459.309 496.456 503.443C474.808 547.578 419.048 581.962 404.616 651.243C389.528 721.037 416.424 825.216 378.376 860.113C340.328 895.01 237.336 859.6 140.904 851.389C44.4724 843.691 -46.0556 862.679 -98.5356 834.453C-150.36 806.228 -164.136 730.275 -197.592 668.692C-231.048 607.108 -284.184 560.408 -269.752 519.865C-255.32 479.323 -172.008 445.452 -133.304 391.567C-93.9436 337.682 -99.1916 263.782 -61.7996 205.278C-24.4076 147.287 55.6244 104.692 116.632 129.838C177.64 154.985 219.624 247.873 279.32 296.113Z" fill="#A147D9"/>
</g>
<defs>
<clipPath id="clip0_58_122">
<rect width="802" height="663" fill="white" transform="translate(-11)"/>
</clipPath>
</defs>
</svg>
